# xmcd CD database file
#
# Track frame offsets:
#	150
#	4767
#	23385
#	47127
#	67465
#	94712
#	105872
#	124037
#	143307
#	163812
#	188270
#	206140
#	230307
#
# Disc length: 3586 seconds
#
# Revision: 0
# Processed by: cddbd v1.5PL3 Copyright (c) Steve Scherf et al.
# Submitted via: CDex 1.51
#
DISCID=9c0e000d
DTITLE=ジムノペディ - 今宵も、うたかた探し
DYEAR=2004
DGENRE=Rhythmic Soul
TTITLE0=恥艶の輪
TTITLE1=ウタカタ
TTITLE2=ヒメゴト花火
TTITLE3=花オルゴール
TTITLE4=サリエリ
TTITLE5=金魚遊び
TTITLE6=ミイラ少女
TTITLE7=恋は喜劇
TTITLE8=恋じかけのワルツ
TTITLE9=やっと、ひとくち
TTITLE10=ままごと初夜
TTITLE11=夜明け
TTITLE12=手紙
EXTD=YEAR: 2004
EXTT0=
EXTT1=
EXTT2=
EXTT3=
EXTT4=
EXTT5=
EXTT6=
EXTT7=
EXTT8=
EXTT9=
EXTT10=
EXTT11=
EXTT12=
PLAYORDER=
